<?xml version="1.0" encoding="utf-8"?>
<!-- Generator: Adobe Illustrator 26.0.3, SVG Export Plug-In . SVG Version: 6.00 Build 0)  -->
<svg version="1.1" id="Слой_1" xmlns="http://www.w3.org/2000/svg" xmlns:xlink="http://www.w3.org/1999/xlink" x="0px" y="0px"
	 viewBox="0 0 160 160" style="enable-background:new 0 0 160 160;" xml:space="preserve">
<style type="text/css">
	.st0{fill:#F6A505;}
	.st1{fill:#6292C7;}
	.st2{fill:#C2C2C3;}
	.st3{fill:#FFFFFF;}
	.st4{fill:#658B3C;}
	.st5{opacity:0.5;}
	.st6{clip-path:url(#SVGID_00000099632235135020064560000014697376569940185012_);}
	.st7{fill:#465F2C;}
	.st8{fill:#2896C7;}
	.st9{opacity:0.5;fill:#1B698B;}
	.st10{fill:#474748;}
	.st11{display:none;}
	.st12{display:inline;}
	.st13{display:inline;clip-path:url(#SVGID_00000079445501168551544210000011367352125207412630_);fill:#5F5D5D;}
</style>
<circle class="st0" cx="58.3" cy="29.2" r="17.8"/>
<g>
	<path class="st1" d="M82.1,53.2c0,0.3,0,0.7,0,1c-0.7,1.7-1.6,3.2-2.8,4.6c-2.8,2.9-5.7,5.7-8.9,8.1c-5,3.9-9.8,8-14.4,12.3
		c-0.5,0.4-0.9,0.6-1.5,0.6c-1.9-0.1-3.8-0.2-5.7-0.2c-2.4-0.2-4.7,0-7.2,0.2c-2.3,0.2-4.3,0.8-6.3,2c-2.4,1.5-4.1,3.6-5.8,5.8
		c-2.1,2.8-4.2,5.5-5.3,8.9c-0.7,2.4,0.2,4.1,2.6,5c0.9,0.4,2,0,3.1,0.5c-1.5,1-2.4,2.5-3.5,3.7c-0.9,0.9-1.4,2-1.8,3.2
		c-0.5,1.4,0,2.4,1,3.1c2,1.7,4.6,1.8,6.9,1.9c1.8,0.1,3.7-0.2,5.4-0.9c0.3-0.1,0.6-0.2,0.8,0.4c0.8,2.5,2.4,3.8,4.8,4
		c5,0.5,8.5-2.2,11.7-5.5c0.3-0.3,0.8-0.9,0.3-1.4s-1,0-1.5,0.2c-0.9,0.6-1.6,1.3-2.4,1.9c-2.2,1.5-4.5,2.6-7.2,2.3
		c-1.2-0.1-2.4-0.5-3-1.7s0.5-2,1.1-2.8c0.9-1.2,2-2.1,3.1-3.1c3.1-2.7,6.3-4.6,10.8-3.9c4.1,0.6,8,1.5,11.8,3.2
		c3.1,1.4,3.6,3.2,2.1,6.4c-1.6,3.4-4,6.2-6.6,8.8c-2.7,2.6-5.5,5.1-8.6,7.2c-3.5,2.4-7.3,5-13.1,6.4c-1.1,0.3-2,0.5-2.7,0.6
		c-0.6,0-1.3,0.1-1.9,0.1c-0.4,0-0.9,0-1.6-0.1c0,0-0.6-0.2-1-0.2c-6.8-1.6-13.8-7.6-13.8-7.6c-4.2-3.5-7.8-7.7-10.1-12.8
		c-1.8-4-2.6-8.1-1.4-12.5c1.1-4.3,3.1-8.3,4.3-12.6c0.9-3.1,1.9-6.3,2.1-9.6c0.3-3.5-0.4-6.8-1.4-10.1c-1.3-4.3-3.1-8.3-6.1-11.9
		c-2.1-2.6-1.2-5.3,2-6.3c2.8-0.9,5.3-0.2,7.7,1.1c4.6,2.4,7.4,6.3,9.3,10.9c2,4.9,3.1,9.9,3.1,15.1c0,0.2-0.1,0.6,0.2,0.6
		c0.2,0,0.4-0.2,0.6-0.3c3.3-2.6,6.7-5.3,10-7.9C47,67.4,52.9,63.1,58.9,59c4-2.8,8-5.4,12.7-7.2c1.7-0.6,3.5-0.9,5.1-1.3
		c0.5,0,0.9,0,1.3,0C79.8,50.9,81.3,51.6,82.1,53.2z"/>
	<path class="st1" d="M68.8,100.1c-0.1,0.9-0.2,1.7-0.2,2.4c-0.1,1.2-0.5,1.1-1.3,0.8c-3.7-1.3-7.5-1.9-11.3-2.4
		c-4.3-0.6-7.5,1-10.6,3.7c-1.6,1.3-3.1,2.8-4.6,4.1c-2,1.6-4.4,2.3-6.9,2.5c-1.4,0.2-2.9,0.2-4.4-0.2c-1.7-0.5-2.1-1.4-1.2-2.8
		c1.3-2,3-3.8,4.8-5.4c1.9-1.7,3.9-3.4,5.8-5.1c1.2-1,2.3-2,3.6-2.9c1.7-1,3.5-1.3,5.4-1.4c5.8-0.3,11.6,0.2,17.1,2
		C67.7,96.2,69.1,97.6,68.8,100.1z"/>
	<path class="st1" d="M45.9,82.5c4.2-0.1,8.5,0.4,12.7,1c3.4,0.6,4.3,3,3.8,5.8c-0.4,2.2-0.6,2.2-3.5,1.7c-4.8-0.9-9.6-1.1-14.4-0.2
		c-2.2,0.5-4,1.7-5.7,3.1c-2,1.7-4,3.4-6.1,5c-1.1,0.9-4.6,0.6-5.7-0.2c-0.9-0.8-0.6-1.7-0.2-2.6c1.1-2.4,2.8-4.6,4.4-6.8
		c1.2-1.7,2.5-3.1,4.1-4.5c2.1-1.8,4.7-2.3,7.4-2.4C44,82.4,44.9,82.5,45.9,82.5z"/>
</g>
<path class="st2" d="M32.7,42c-0.7-0.2-1.3-0.6-1.8-1c-3.1-2.1-6.1-4.1-9.4-6c-2.4-1.4-4.7-2.8-7.1-4.2c-3.2-1.9-6.5-3.7-9.8-5.6
	c-1.4-0.8-2.8-1.7-3.7-3.1c-0.3-0.5-0.2-1-0.2-1.5c0.1-0.3,0.4-0.5,0.7-0.5C2.3,20,3,20.4,3.7,20.9c3.3,2.3,6.6,4.6,9.9,6.9
	c3.6,2.6,7.2,5.3,10.9,7.9c2.5,1.8,5,3.7,7.5,5.5C32.3,41.4,32.5,41.6,32.7,42z"/>
<path class="st2" d="M19.6,41.2c-0.6,0.2-1.3-0.1-2-0.2c-3.5-0.7-7.1-1.3-10.6-1.8c-1.7-0.2-3.5-0.6-5.2-0.9c-0.6-0.1-1-0.4-1.5-0.7
	C0.1,37.4-0.1,37,0,36.7S0.4,36,0.7,36c0.5,0,0.9-0.1,1.3,0.1c4.2,1.4,8.5,2.5,12.8,3.6c1.4,0.4,2.8,0.7,4.2,1
	C19.3,40.8,19.5,40.9,19.6,41.2z"/>
<path class="st2" d="M20.8,16c0-0.5-0.1-0.9,0.4-1.1c0.5-0.2,0.8,0.1,1.1,0.3c0.9,0.8,1.2,1.9,1.7,2.8c1.2,2.2,2.4,4.4,3.6,6.5
	c1.1,1.9,2.2,3.8,3.3,5.7c0.2,0.2,0.3,0.5,0,0.6c-0.2,0.2-0.3-0.2-0.5-0.3c-1.8-2.5-3.5-5-5.3-7.6c-1.3-1.8-2.7-3.5-3.9-5.4
	C21,17,20.7,16.5,20.8,16z"/>
<path class="st3" d="M64.6,29.7c3.1-2.9,2.8-6.1-0.7-8.8c0.2-0.5,0.3-0.9,0.5-1.5c0.2-0.9-0.1-1.6-0.9-1.8c-0.7-0.2-1.4,0.2-1.7,1
	c-0.2,0.6-0.3,1-0.5,1.5c-0.6-0.2-1.2-0.4-1.7-0.6c0.2-0.6,0.3-1,0.5-1.5c0.2-0.9-0.1-1.7-0.9-1.9s-1.4,0.2-1.7,1.1
	c-0.2,0.5-0.3,1-0.5,1.5c-0.6-0.2-1-0.3-1.5-0.5c-0.8-0.2-1.5,0.1-1.7,0.9c-0.2,0.7,0.2,1.4,0.9,1.7c0.5,0.2,1,0.3,1.5,0.5
	c-1.3,4-2.4,7.9-3.6,11.9c-0.6-0.2-1-0.3-1.5-0.5c-0.8-0.2-1.5,0.1-1.7,0.9c-0.2,0.7,0.2,1.4,0.9,1.7c0.5,0.2,1,0.3,1.4,0.5
	c0,0.1,0,0.2,0,0.2c-0.2,0.6-0.3,1.1-0.5,1.7c-0.2,0.8,0.2,1.5,0.9,1.7s1.4-0.2,1.7-0.9c0.2-0.6,0.4-1.2,0.6-1.7
	c0.6,0.2,1.2,0.4,1.7,0.6c-0.2,0.6-0.4,1.2-0.6,1.8c-0.2,0.8,0.2,1.5,0.9,1.7s1.4-0.2,1.7-0.9c0.2-0.6,0.4-1.2,0.6-1.8
	c2.6,0.9,4.9,0.6,6.4-1.7C66.7,34,66.4,31.7,64.6,29.7z M58.9,22.3c1.3,0.4,2.8,0.7,4.1,1.3c1,0.5,1.3,1.7,0.9,2.8
	c-0.4,1-1.5,1.7-2.6,1.5c-1.3-0.3-2.6-0.8-3.9-1.2C57.9,25.3,58.4,23.8,58.9,22.3z M60.4,35.7c-1.7-0.5-3.4-1-5.2-1.6
	c0.5-1.6,0.9-3,1.4-4.6c0.4,0.2,0.8,0.2,1.2,0.4c1.3,0.4,2.7,0.8,3.9,1.3c1.3,0.4,2,1.7,1.6,3C63,35.4,61.6,36.1,60.4,35.7z"/>
<g id="Icon_00000163751867792009211590000010693278002609387445_">
	<g id="Money_00000177460407693990157990000009075828835527802024_">
		<path class="st4" d="M149.4,97l3.1,21.3l-48.5-0.2c-0.1,0.1-0.2,0.2-0.3,0.3c-0.1,0.1-0.2,0.2-0.3,0.3c-0.1,0.1-0.2,0.2-0.3,0.3
			c-0.1,0.1-0.2,0.2-0.3,0.3c-0.1,0.1-0.2,0.2-0.2,0.3c-0.1,0.1-0.2,0.2-0.2,0.3c-0.1,0.1-0.1,0.2-0.2,0.3c-0.1,0.1-0.1,0.2-0.2,0.3
			l52.4,0.9l-3.6-24.4L149.4,97z"/>
		<path class="st4" d="M107.6,113.9c-0.2,0.2-0.4,0.4-0.5,0.6c-0.2,0.2-0.3,0.4-0.5,0.6c-0.2,0.2-0.3,0.4-0.5,0.6l43-0.3l-2.7-20.6
			l-0.3-2.5l-1.8,0.2l2.5,20.1l-38.6,0.8C107.9,113.5,107.7,113.7,107.6,113.9z"/>
		<path class="st4" d="M140.4,88l-2.8,0.4c-0.3,0.2-0.6,0.4-0.9,0.5c-0.3,0.2-0.6,0.4-0.8,0.5c-0.3,0.2-0.6,0.4-0.8,0.6
			c-0.3,0.2-0.6,0.4-0.8,0.6c-0.4,0.3-0.8,0.5-1.1,0.8c-0.4,0.3-0.7,0.5-1.1,0.8c-0.4,0.3-0.7,0.5-1.1,0.8c-0.4,0.3-0.7,0.5-1.1,0.8
			c-0.3,0.2-0.6,0.5-1,0.7c-0.3,0.2-0.6,0.5-1,0.7c-0.3,0.2-0.6,0.5-1,0.7c-0.3,0.2-0.6,0.5-0.9,0.7c-0.2,0.2-0.4,0.3-0.6,0.5
			c-0.2,0.2-0.4,0.3-0.6,0.5c-0.2,0.2-0.4,0.3-0.6,0.5c-0.2,0.2-0.4,0.3-0.6,0.5c-0.1,0.1-0.2,0.1-0.2,0.2c-0.1,0.1-0.2,0.1-0.2,0.2
			c-0.1,0.1-0.2,0.1-0.2,0.2c-0.1,0.1-0.2,0.1-0.2,0.2c-0.3,0.2-0.5,0.4-0.8,0.6c-0.3,0.2-0.5,0.4-0.8,0.7c-0.3,0.2-0.5,0.4-0.8,0.7
			c-0.3,0.2-0.5,0.4-0.8,0.7c-0.8,0.7-1.6,1.4-2.4,2.1c-0.8,0.7-1.6,1.5-2.3,2.2c-0.8,0.7-1.5,1.5-2.3,2.3c-0.8,0.8-1.5,1.5-2.2,2.3
			l32.5-1.1l-2.2-19.4L140.4,88z"/>
		<g id="Money_Shadow_00000001629511875532636490000010034581893106967721_" class="st5">
			<defs>
				<path id="SVGID_1_" class="st5" d="M140.4,88l-2.8,0.4c-0.3,0.2-0.6,0.4-0.9,0.5c-0.3,0.2-0.6,0.4-0.8,0.5
					c-0.3,0.2-0.6,0.4-0.8,0.6c-0.3,0.2-0.6,0.4-0.8,0.6c-0.4,0.3-0.8,0.5-1.1,0.8c-0.4,0.3-0.7,0.5-1.1,0.8
					c-0.4,0.3-0.7,0.5-1.1,0.8c-0.4,0.3-0.7,0.5-1.1,0.8c-0.3,0.2-0.6,0.5-1,0.7c-0.3,0.2-0.6,0.5-1,0.7c-0.3,0.2-0.6,0.5-1,0.7
					c-0.3,0.2-0.6,0.5-0.9,0.7c-0.2,0.2-0.4,0.3-0.6,0.5c-0.2,0.2-0.4,0.3-0.6,0.5c-0.2,0.2-0.4,0.3-0.6,0.5
					c-0.2,0.2-0.4,0.3-0.6,0.5c-0.1,0.1-0.2,0.1-0.2,0.2c-0.1,0.1-0.2,0.1-0.2,0.2c-0.1,0.1-0.2,0.1-0.2,0.2
					c-0.1,0.1-0.2,0.1-0.2,0.2c-0.3,0.2-0.5,0.4-0.8,0.6c-0.3,0.2-0.5,0.4-0.8,0.7c-0.3,0.2-0.5,0.4-0.8,0.7
					c-0.3,0.2-0.5,0.4-0.8,0.7c-0.8,0.7-1.6,1.4-2.4,2.1c-0.8,0.7-1.6,1.5-2.3,2.2c-0.8,0.7-1.5,1.5-2.3,2.3
					c-0.8,0.8-1.5,1.5-2.2,2.3c-0.6,0.6-1.2,1.3-2.2,2.4c-0.9,1.1-1.2,1.3-2.1,2.4c-0.6,0.7-1.4,1.7-2,2.4c-1.1,1.4-1.9,2.4-1.9,2.4
					l5.7,0.1C114.6,111.1,128.3,97.1,140.4,88z"/>
			</defs>
			<clipPath id="SVGID_00000174561480975407337010000010781548703732947846_">
				<use xlink:href="#SVGID_1_"  style="overflow:visible;"/>
			</clipPath>
			<g style="clip-path:url(#SVGID_00000174561480975407337010000010781548703732947846_);">
				<path class="st7" d="M149.4,97l3.1,21.3l-48.5-0.2c-0.1,0.1-0.2,0.2-0.3,0.3c-0.1,0.1-0.2,0.2-0.3,0.3c-0.1,0.1-0.2,0.2-0.3,0.3
					c-0.1,0.1-0.2,0.2-0.3,0.3c-0.1,0.1-0.2,0.2-0.2,0.3c-0.1,0.1-0.2,0.2-0.2,0.3c-0.1,0.1-0.1,0.2-0.2,0.3
					c-0.1,0.1-0.1,0.2-0.2,0.3l52.4,0.9l-3.6-24.4L149.4,97z"/>
				<path class="st7" d="M107.6,113.9c-0.2,0.2-0.4,0.4-0.5,0.6c-0.2,0.2-0.3,0.4-0.5,0.6c-0.2,0.2-0.3,0.4-0.5,0.6l43-0.3
					l-2.7-20.6l-0.3-2.5l-1.8,0.2l2.5,20.1l-38.6,0.8C107.9,113.5,107.7,113.7,107.6,113.9z"/>
				<path class="st7" d="M140.4,88l-2.8,0.4c-0.3,0.2-0.6,0.4-0.9,0.5c-0.3,0.2-0.6,0.4-0.8,0.5c-0.3,0.2-0.6,0.4-0.8,0.6
					c-0.3,0.2-0.6,0.4-0.8,0.6c-0.4,0.3-0.8,0.5-1.1,0.8c-0.4,0.3-0.7,0.5-1.1,0.8c-0.4,0.3-0.7,0.5-1.1,0.8
					c-0.4,0.3-0.7,0.5-1.1,0.8c-0.3,0.2-0.6,0.5-1,0.7c-0.3,0.2-0.6,0.5-1,0.7c-0.3,0.2-0.6,0.5-1,0.7c-0.3,0.2-0.6,0.5-0.9,0.7
					c-0.2,0.2-0.4,0.3-0.6,0.5c-0.2,0.2-0.4,0.3-0.6,0.5c-0.2,0.2-0.4,0.3-0.6,0.5c-0.2,0.2-0.4,0.3-0.6,0.5
					c-0.1,0.1-0.2,0.1-0.2,0.2c-0.1,0.1-0.2,0.1-0.2,0.2c-0.1,0.1-0.2,0.1-0.2,0.2c-0.1,0.1-0.2,0.1-0.2,0.2
					c-0.3,0.2-0.5,0.4-0.8,0.6c-0.3,0.2-0.5,0.4-0.8,0.7c-0.3,0.2-0.5,0.4-0.8,0.7c-0.3,0.2-0.5,0.4-0.8,0.7
					c-0.8,0.7-1.6,1.4-2.4,2.1c-0.8,0.7-1.6,1.5-2.3,2.2c-0.8,0.7-1.5,1.5-2.3,2.3c-0.8,0.8-1.5,1.5-2.2,2.3l32.5-1.1l-2.2-19.4
					L140.4,88z"/>
			</g>
		</g>
	</g>
	<g id="Check_00000140010219387647384430000003405134364826058409_">
		<path class="st8" d="M155.2,75.2c-1.6,0.6-3.2,1.2-4.8,1.9c-1.6,0.6-3.2,1.3-4.8,2c-1.6,0.7-3.1,1.4-4.7,2.1c0,0-0.1,0-0.1,0.1
			c0,0-0.1,0-0.1,0.1c0,0-0.1,0-0.1,0.1c0,0-0.1,0-0.1,0.1c-1.3,0.6-2.5,1.2-3.8,1.8c-1.2,0.6-2.5,1.2-3.7,1.8
			c-1.2,0.6-2.4,1.3-3.6,1.9c-1.2,0.6-2.4,1.3-3.5,2c-0.4,0.2-0.8,0.5-1.3,0.7c-0.4,0.2-0.8,0.5-1.2,0.7c-0.4,0.2-0.8,0.5-1.2,0.7
			c-0.4,0.2-0.8,0.5-1.2,0.7c-0.4,0.2-0.7,0.4-1,0.6c-0.3,0.2-0.7,0.4-1,0.6c-0.3,0.2-0.7,0.4-1,0.7c-0.3,0.2-0.7,0.4-1,0.7
			c-0.2,0.1-0.5,0.3-0.7,0.4c-0.2,0.1-0.4,0.3-0.7,0.4c-0.2,0.1-0.4,0.3-0.7,0.4c-0.2,0.1-0.4,0.3-0.7,0.4c-0.1,0.1-0.2,0.1-0.2,0.2
			c-0.1,0.1-0.2,0.1-0.2,0.2c-0.1,0.1-0.2,0.1-0.2,0.2c-0.1,0.1-0.2,0.1-0.2,0.2c-0.3,0.2-0.5,0.4-0.8,0.6c-0.3,0.2-0.5,0.4-0.8,0.6
			c-0.3,0.2-0.5,0.4-0.8,0.6c-0.3,0.2-0.5,0.4-0.8,0.6c-1.7,1.3-3.4,2.6-5.1,3.9c-1.6,1.3-3.2,2.7-4.8,4.1c-1.5,1.4-3,2.8-4.5,4.3
			c-1.4,1.5-2.8,3-4.1,4.5c-0.1,0.1-0.2,0.3-0.4,0.4c-0.1,0.1-0.2,0.3-0.4,0.4c-0.1,0.1-0.2,0.3-0.4,0.4c-0.1,0.1-0.2,0.3-0.3,0.4
			c-0.1,0.1-0.2,0.2-0.3,0.3c-0.1,0.1-0.2,0.2-0.3,0.3c-0.1,0.1-0.2,0.2-0.3,0.3c-0.1,0.1-0.2,0.2-0.3,0.3c0-0.1-0.1-0.1-0.1-0.2
			c0-0.1-0.1-0.1-0.1-0.2c0-0.1-0.1-0.1-0.1-0.2c0-0.1-0.1-0.1-0.1-0.2c-0.4-0.5-0.9-1-1.3-1.5c-0.4-0.4-0.8-0.9-1.1-1.3
			c-0.4-0.4-0.7-0.8-1-1.1c-0.3-0.4-0.6-0.7-0.9-1c-0.1-0.1-0.2-0.2-0.2-0.3c-0.1-0.1-0.2-0.2-0.2-0.3c-0.1-0.1-0.2-0.2-0.2-0.3
			c-0.1-0.1-0.2-0.2-0.2-0.3c-0.3-0.4-0.7-0.8-1-1.2c-0.3-0.4-0.7-0.8-1.1-1.3c-0.4-0.4-0.7-0.9-1.1-1.4c-0.4-0.5-0.8-1-1.2-1.6
			c-0.2-0.3-0.4-0.5-0.6-0.8c-0.2-0.3-0.4-0.6-0.6-0.9c-0.2-0.3-0.4-0.6-0.7-0.9c-0.2-0.3-0.5-0.7-0.7-1c0.5,1.5,0.9,3,1.4,4.3
			c0.4,1.4,0.9,2.7,1.3,3.9c0.4,1.3,0.8,2.5,1.2,3.6c0.4,1.2,0.8,2.3,1.2,3.4c0.1,0.3,0.2,0.5,0.3,0.7c0.1,0.2,0.2,0.5,0.3,0.7
			c0.1,0.2,0.2,0.5,0.3,0.7c0.1,0.2,0.2,0.5,0.3,0.7c0,0.1,0.1,0.2,0.1,0.3c0,0.1,0.1,0.2,0.1,0.3c0,0.1,0.1,0.2,0.1,0.3
			c0,0.1,0.1,0.2,0.1,0.3c0,0.1,0.1,0.2,0.1,0.3c0,0.1,0.1,0.2,0.1,0.3c0,0.1,0.1,0.2,0.1,0.3c0,0.1,0.1,0.2,0.1,0.3
			c0,0.1,0.1,0.2,0.1,0.2c0,0.1,0.1,0.2,0.1,0.3c0,0.1,0.1,0.2,0.1,0.3c0,0.1,0.1,0.2,0.1,0.3c0,0,0,0.1,0,0.1c0,0,0,0.1,0,0.1
			c0,0,0,0.1,0,0.1c0,0,0,0.1,0,0.1c0,0.1,0.1,0.2,0.1,0.3c0,0.1,0.1,0.2,0.1,0.3c0,0.1,0.1,0.2,0.1,0.3c0,0.1,0.1,0.2,0.1,0.4
			l0,0.1l0.1,0c0.3,0.7,0.5,1.4,0.8,2.1c0.3,0.7,0.6,1.5,0.9,2.2c0.3,0.8,0.6,1.6,1,2.4c0.3,0.8,0.7,1.7,1.1,2.6
			c0.6-1.1,1.3-2.3,1.9-3.4c0.7-1.1,1.3-2.2,2-3.3c0.7-1.1,1.4-2.1,2.1-3.2c0.7-1,1.4-2.1,2.1-3.1c0,0,0,0,0-0.1c0,0,0,0,0-0.1
			c0,0,0,0,0-0.1c0,0,0,0,0-0.1c0.1-0.2,0.3-0.4,0.4-0.6c0.1-0.2,0.3-0.4,0.4-0.6c0.1-0.2,0.3-0.4,0.4-0.6c0.1-0.2,0.3-0.4,0.4-0.6
			c0.1-0.2,0.2-0.3,0.4-0.5c0.1-0.2,0.2-0.3,0.4-0.5c0.1-0.2,0.2-0.3,0.4-0.5c0.1-0.2,0.2-0.3,0.4-0.5c0,0,0-0.1,0.1-0.1
			c0,0,0-0.1,0.1-0.1c0,0,0-0.1,0.1-0.1c0,0,0-0.1,0.1-0.1c0.1-0.2,0.3-0.4,0.4-0.6c0.2-0.2,0.3-0.4,0.5-0.6
			c0.2-0.2,0.3-0.4,0.5-0.6c0.2-0.2,0.3-0.4,0.5-0.6c0.2-0.2,0.3-0.4,0.5-0.6c0.2-0.2,0.3-0.4,0.5-0.6c0.2-0.2,0.3-0.4,0.5-0.6
			c0.2-0.2,0.3-0.4,0.5-0.6c1.1-1.3,2.3-2.6,3.4-3.9c1.2-1.3,2.3-2.5,3.5-3.8c1.2-1.2,2.4-2.4,3.7-3.6c1.2-1.2,2.5-2.4,3.8-3.5
			c0.2-0.2,0.5-0.4,0.7-0.7c0.2-0.2,0.5-0.4,0.7-0.7c0.2-0.2,0.5-0.4,0.7-0.6c0.2-0.2,0.5-0.4,0.7-0.6c0.1-0.1,0.2-0.1,0.2-0.2
			c0.1-0.1,0.1-0.1,0.2-0.2c0.1-0.1,0.1-0.1,0.2-0.2c0.1-0.1,0.1-0.1,0.2-0.2c0.2-0.2,0.4-0.3,0.6-0.5c0.2-0.2,0.4-0.3,0.6-0.5
			c0.2-0.2,0.4-0.3,0.6-0.5c0.2-0.2,0.4-0.3,0.6-0.5c0.3-0.2,0.6-0.5,0.9-0.7c0.3-0.2,0.6-0.5,0.9-0.7c0.3-0.2,0.6-0.5,0.9-0.7
			c0.3-0.2,0.6-0.5,0.9-0.7c0.4-0.3,0.7-0.5,1.1-0.8c0.4-0.3,0.7-0.5,1.1-0.8c0.4-0.3,0.7-0.5,1.1-0.8c0.4-0.3,0.7-0.5,1.1-0.8
			c0.7-0.5,1.4-0.9,2.1-1.4c0.7-0.5,1.4-0.9,2.1-1.4c0.7-0.4,1.4-0.9,2.1-1.3c0.7-0.4,1.4-0.9,2.1-1.3c1.6-0.9,3.2-1.8,4.7-2.6
			c1.6-0.8,3.2-1.6,4.8-2.4c1.6-0.8,3.3-1.5,4.9-2.1c1.6-0.7,3.3-1.3,4.9-1.9C158.4,74,156.8,74.6,155.2,75.2z"/>
		<path class="st9" d="M87,133.7c0,0,0.7,1.7,1.1,2.6c0.6-1.1,1.3-2.3,1.9-3.4c0.7-1.1,1.3-2.2,2-3.3c0.7-1.1,1.4-2.1,2.1-3.2
			c0.7-1,1.4-2.1,2.1-3.1c0,0,0,0,0-0.1c0,0,0,0,0-0.1c0,0,0,0,0-0.1c0,0,0,0,0-0.1c0.1-0.2,0.3-0.4,0.4-0.6
			c0.1-0.2,0.3-0.4,0.4-0.6c0.1-0.2,0.3-0.4,0.4-0.6c0.1-0.2,0.3-0.4,0.4-0.6c0.1-0.2,0.2-0.3,0.4-0.5c0.1-0.2,0.2-0.3,0.4-0.5
			c0.1-0.2,0.2-0.3,0.4-0.5c0.1-0.2,0.2-0.3,0.4-0.5c0,0,0-0.1,0.1-0.1c0,0,0-0.1,0.1-0.1c0,0,0-0.1,0.1-0.1c0,0,0-0.1,0.1-0.1
			c0.1-0.2,0.3-0.4,0.4-0.6c0.2-0.2,0.3-0.4,0.5-0.6c0.2-0.2,0.3-0.4,0.5-0.6c0.2-0.2,0.3-0.4,0.5-0.6c0.2-0.2,0.3-0.4,0.5-0.6
			c0.2-0.2,0.3-0.4,0.5-0.6c0.2-0.2,0.3-0.4,0.5-0.6c0.2-0.2,0.3-0.4,0.5-0.6c1.1-1.3,2.3-2.6,3.4-3.9c1.2-1.3,2.3-2.5,3.5-3.8
			c1.2-1.2,2.4-2.4,3.7-3.6c1.2-1.2,2.5-2.4,3.8-3.5c0.2-0.2,0.5-0.4,0.7-0.7c0.2-0.2,0.5-0.4,0.7-0.7c0.2-0.2,0.5-0.4,0.7-0.6
			c0.2-0.2,0.5-0.4,0.7-0.6c0.1-0.1,0.2-0.1,0.2-0.2c0.1-0.1,0.1-0.1,0.2-0.2c0.1-0.1,0.1-0.1,0.2-0.2c0.1-0.1,0.1-0.1,0.2-0.2
			c0.2-0.2,0.4-0.3,0.6-0.5c0.2-0.2,0.4-0.3,0.6-0.5c0.2-0.2,0.4-0.3,0.6-0.5c0.2-0.2,0.4-0.3,0.6-0.5c0.3-0.2,0.6-0.5,0.9-0.7
			c0.3-0.2,0.6-0.5,0.9-0.7c0.3-0.2,0.6-0.5,0.9-0.7c0.3-0.2,0.6-0.5,0.9-0.7c0.4-0.3,0.7-0.5,1.1-0.8c0.4-0.3,0.7-0.5,1.1-0.8
			c0.4-0.3,0.7-0.5,1.1-0.8c0.4-0.3,0.7-0.5,1.1-0.8c0.7-0.5,1.4-0.9,2.1-1.4c0.7-0.5,1.4-0.9,2.1-1.4c0.7-0.4,1.4-0.9,2.1-1.3
			c0.7-0.4,1.4-0.9,2.1-1.3c1.6-0.9,3.2-1.8,4.7-2.6c1.6-0.8,3.2-1.6,4.8-2.4c1.6-0.8,3.3-1.5,4.9-2.1c1.6-0.7,3.3-1.3,4.9-1.9
			c-1.6,0.6-3.2,1.1-4.8,1.7c-1.6,0.6-3.2,1.2-4.8,1.9c-1.6,0.6-3.2,1.3-4.8,2c-1.6,0.7-3.1,1.4-4.7,2.1c0,0-0.1,0-0.1,0.1
			c0,0-0.1,0-0.1,0.1c0,0-0.1,0-0.1,0.1c0,0-0.1,0-0.1,0.1c-1.3,0.6-2.5,1.2-3.8,1.8c-1.2,0.6-3.7,1.8-3.7,1.8
			c-9.1,6-31.6,20.6-47.1,46.1L87,133.7z"/>
	</g>
	<g id="Lock_00000048501482200819366490000001967175174187175060_">
		<path class="st10" d="M137.3,70.7c-0.1-0.5-0.2-1-0.5-1.4c-0.3-0.4-0.6-0.7-1.1-1c-0.4-0.3-0.9-0.4-1.5-0.5
			c-0.5-0.1-1.1,0-1.7,0.1l-4.1,1l0-0.1l-1.4,0.3l-0.4-6.3c-0.2-2.1-0.8-4-1.8-5.6c-1-1.5-2.3-2.7-3.8-3.5c-1.5-0.8-3.3-1.3-5.1-1.3
			c-1.8-0.1-3.8,0.2-5.8,0.9c-2,0.7-3.8,1.6-5.4,2.8c-1.6,1.2-3.1,2.6-4.3,4.2c-1.2,1.6-2.2,3.3-3,5c-0.7,1.8-1.2,3.7-1.3,5.6
			l-0.3,5.6l-0.9,0.2l0,0.1l-3.3,0.8c-0.4,0.1-0.8,0.3-1.1,0.5c-0.3,0.2-0.7,0.5-0.9,0.9c-0.3,0.3-0.5,0.7-0.7,1.1
			c-0.2,0.4-0.3,0.8-0.3,1.3l-2.3,29.4l2.5,2.8l0.6-10.6c0.1-1.1,0.3-2.1,0.7-3.1c0.4-1,0.9-1.8,1.5-2.6c0.6-0.8,1.3-1.4,2.1-1.9
			c0.8-0.5,1.6-0.8,2.6-0.9l1.1-0.1c-0.5-0.1-0.9-0.4-1.2-0.7c-0.4-0.3-0.7-0.7-0.9-1.1c-0.3-0.4-0.4-0.9-0.6-1.4
			c-0.1-0.5-0.2-1.1-0.2-1.6c0-0.8,0.2-1.5,0.4-2.2c0.3-0.7,0.6-1.3,1.1-1.9c0.4-0.6,1-1,1.5-1.4c0.6-0.4,1.2-0.6,1.9-0.8
			c0,0,0,0,0,0c0,0,0,0,0,0c0,0,0,0,0,0c0,0,0,0,0,0c0.7-0.1,1.3-0.1,1.9,0.1c0.6,0.2,1.1,0.5,1.6,0.9c0.5,0.4,0.8,1,1.1,1.6
			c0.3,0.6,0.4,1.4,0.4,2.1c0,0.6-0.1,1.2-0.3,1.8c-0.2,0.6-0.4,1.1-0.7,1.7c-0.3,0.5-0.7,1-1.1,1.4c-0.4,0.4-0.9,0.8-1.3,1l1-0.1
			c0.7-0.1,1.3-0.1,2,0.1c0.6,0.1,1.2,0.4,1.8,0.7c0.6,0.3,1.1,0.7,1.5,1.3c0.4,0.5,0.8,1,1.1,1.6c0.3-0.2,0.5-0.4,0.8-0.6l0-3.5
			c0-0.8,0.1-1.6,0.4-2.3c0.3-0.7,0.6-1.4,1.1-2c0.5-0.6,1-1.1,1.7-1.5c0.6-0.4,1.4-0.7,2.1-0.8l0.9-0.1c-0.4-0.1-0.8-0.3-1.1-0.5
			c-0.3-0.2-0.6-0.5-0.8-0.8c-0.2-0.3-0.4-0.6-0.6-1c-0.1-0.4-0.2-0.8-0.2-1.2c0-0.6,0.1-1.1,0.3-1.6c0.2-0.5,0.5-1,0.8-1.4
			c0.3-0.4,0.8-0.8,1.2-1.1c0.5-0.3,1-0.5,1.5-0.6c0.6-0.1,1.1-0.1,1.6,0c0.5,0.1,1,0.3,1.4,0.6c0.4,0.3,0.7,0.7,1,1.2
			c0.2,0.5,0.4,1,0.4,1.6c0,0.5,0,0.9-0.1,1.3c-0.1,0.4-0.3,0.9-0.5,1.2c-0.2,0.4-0.5,0.7-0.8,1.1c-0.3,0.3-0.7,0.6-1.1,0.8l0.8-0.1
			c0.4-0.1,0.9-0.1,1.3-0.1c0.4,0,0.8,0.1,1.2,0.2c0.4,0.1,0.8,0.3,1.1,0.5c0.3,0.2,0.7,0.4,1,0.7c-0.1,0.1-0.2,0.1-0.3,0.2
			c0.1,0,0.2,0,0.3,0c0.4-0.2,0.8-0.5,1.2-0.7l-0.1-1.5c0-0.6,0-1.2,0.2-1.8c0.2-0.6,0.5-1.1,0.9-1.6c0.4-0.5,0.8-0.9,1.4-1.2
			c0.5-0.3,1.1-0.5,1.7-0.6l0.8-0.1c-0.3-0.1-0.6-0.2-0.9-0.3c-0.3-0.2-0.5-0.3-0.7-0.6c-0.2-0.2-0.4-0.5-0.5-0.8
			c-0.1-0.3-0.2-0.6-0.2-0.9c0-0.4,0-0.9,0.2-1.3c0.1-0.4,0.4-0.8,0.6-1.1c0.3-0.3,0.6-0.6,1-0.9c0.4-0.2,0.8-0.4,1.3-0.5
			c0.5-0.1,0.9-0.1,1.3,0c0.4,0.1,0.8,0.2,1.1,0.5c0.3,0.2,0.6,0.5,0.8,0.9c0.2,0.4,0.4,0.8,0.4,1.2c0,0.3,0,0.7-0.1,1
			c-0.1,0.3-0.2,0.7-0.4,1c-0.2,0.3-0.4,0.6-0.6,0.8c-0.3,0.2-0.5,0.5-0.9,0.6l0.7-0.1c0.4-0.1,0.8-0.1,1.1-0.1
			c0.4,0,0.7,0.1,1.1,0.2c0.3,0.1,0.7,0.2,1,0.4c0.1,0.1,0.2,0.1,0.3,0.2c0,0,0,0,0,0c0.1-0.1,0.3-0.1,0.4-0.2
			c0.3-0.1,0.5-0.3,0.8-0.4c0.3-0.1,0.5-0.3,0.8-0.4L137.3,70.7z M100.9,75.2l0.2-5.8c0-1.2,0.3-2.4,0.8-3.6
			c0.5-1.1,1.1-2.2,1.9-3.2c0.8-1,1.7-1.9,2.8-2.6c1.1-0.8,2.2-1.3,3.5-1.7c1.3-0.4,2.5-0.5,3.6-0.4c1.1,0.1,2.2,0.4,3.1,1
			c0.9,0.5,1.7,1.3,2.2,2.3c0.6,1,0.9,2.1,1,3.4l0.3,6.3L100.9,75.2z"/>
		<g class="st11">
			<defs>
				<path id="SVGID_00000124138160489627178070000014526611334129296308_" d="M138.2,79.1l4.7,30.8l-54.1,3.5l-2.5-2.8L87.2,99
					c8.7-5,18.6-10.1,29.2-14.9c7.3-3.4,14.5-6.4,21.4-9.1L138.2,79.1z"/>
			</defs>
			<clipPath id="SVGID_00000165192342312545246510000007532928175570578818_" class="st12">
				<use xlink:href="#SVGID_00000124138160489627178070000014526611334129296308_"  style="overflow:visible;"/>
			</clipPath>
			<path style="display:inline;clip-path:url(#SVGID_00000165192342312545246510000007532928175570578818_);fill:#5F5D5D;" d="
				M137.3,70.7c-0.1-0.5-0.2-1-0.5-1.4c-0.3-0.4-0.6-0.7-1.1-1c-0.4-0.3-0.9-0.4-1.5-0.5c-0.5-0.1-1.1,0-1.7,0.1l-4.1,1l0-0.1
				l-1.4,0.3l-0.4-6.3c-0.2-2.1-0.8-4-1.8-5.6c-1-1.5-2.3-2.7-3.8-3.5c-1.5-0.8-3.3-1.3-5.1-1.3c-1.8-0.1-3.8,0.2-5.8,0.9
				c-2,0.7-3.8,1.6-5.4,2.8c-1.6,1.2-3.1,2.6-4.3,4.2c-1.2,1.6-2.2,3.3-3,5c-0.7,1.8-1.2,3.7-1.3,5.6l-0.3,5.6l-0.9,0.2l0,0.1
				l-3.3,0.8c-0.4,0.1-0.8,0.3-1.1,0.5c-0.3,0.2-0.7,0.5-0.9,0.9c-0.3,0.3-0.5,0.7-0.7,1.1c-0.2,0.4-0.3,0.8-0.3,1.3l-2.3,29.4
				l2.5,2.8l0.6-10.6c0.1-1.1,0.3-2.1,0.7-3.1c0.4-1,0.9-1.8,1.5-2.6c0.6-0.8,1.3-1.4,2.1-1.9c0.8-0.5,1.6-0.8,2.6-0.9l1.1-0.1
				c-0.5-0.1-0.9-0.4-1.2-0.7c-0.4-0.3-0.7-0.7-0.9-1.1c-0.3-0.4-0.4-0.9-0.6-1.4c-0.1-0.5-0.2-1.1-0.2-1.6c0-0.8,0.2-1.5,0.4-2.2
				c0.3-0.7,0.6-1.3,1.1-1.9c0.4-0.6,1-1,1.5-1.4c0.6-0.4,1.2-0.6,1.9-0.8c0,0,0,0,0,0c0,0,0,0,0,0c0,0,0,0,0,0c0,0,0,0,0,0
				c0.7-0.1,1.3-0.1,1.9,0.1c0.6,0.2,1.1,0.5,1.6,0.9c0.5,0.4,0.8,1,1.1,1.6c0.3,0.6,0.4,1.4,0.4,2.1c0,0.6-0.1,1.2-0.3,1.8
				c-0.2,0.6-0.4,1.1-0.7,1.7c-0.3,0.5-0.7,1-1.1,1.4c-0.4,0.4-0.9,0.8-1.3,1l1-0.1c0.7-0.1,1.3-0.1,2,0.1c0.6,0.1,1.2,0.4,1.8,0.7
				c0.6,0.3,1.1,0.7,1.5,1.3c0.4,0.5,0.8,1,1.1,1.6c0.3-0.2,0.5-0.4,0.8-0.6l0-3.5c0-0.8,0.1-1.6,0.4-2.3c0.3-0.7,0.6-1.4,1.1-2
				c0.5-0.6,1-1.1,1.7-1.5c0.6-0.4,1.4-0.7,2.1-0.8l0.9-0.1c-0.4-0.1-0.8-0.3-1.1-0.5c-0.3-0.2-0.6-0.5-0.8-0.8
				c-0.2-0.3-0.4-0.6-0.6-1c-0.1-0.4-0.2-0.8-0.2-1.2c0-0.6,0.1-1.1,0.3-1.6c0.2-0.5,0.5-1,0.8-1.4c0.3-0.4,0.8-0.8,1.2-1.1
				c0.5-0.3,1-0.5,1.5-0.6c0.6-0.1,1.1-0.1,1.6,0c0.5,0.1,1,0.3,1.4,0.6c0.4,0.3,0.7,0.7,1,1.2c0.2,0.5,0.4,1,0.4,1.6
				c0,0.5,0,0.9-0.1,1.3c-0.1,0.4-0.3,0.9-0.5,1.2c-0.2,0.4-0.5,0.7-0.8,1.1c-0.3,0.3-0.7,0.6-1.1,0.8l0.8-0.1
				c0.4-0.1,0.9-0.1,1.3-0.1c0.4,0,0.8,0.1,1.2,0.2c0.4,0.1,0.8,0.3,1.1,0.5c0.3,0.2,0.7,0.4,1,0.7c-0.1,0.1-0.2,0.1-0.3,0.2
				c0.1,0,0.2,0,0.3,0c0.4-0.2,0.8-0.5,1.2-0.7l-0.1-1.5c0-0.6,0-1.2,0.2-1.8c0.2-0.6,0.5-1.1,0.9-1.6c0.4-0.5,0.8-0.9,1.4-1.2
				c0.5-0.3,1.1-0.5,1.7-0.6l0.8-0.1c-0.3-0.1-0.6-0.2-0.9-0.3c-0.3-0.2-0.5-0.3-0.7-0.6c-0.2-0.2-0.4-0.5-0.5-0.8
				c-0.1-0.3-0.2-0.6-0.2-0.9c0-0.4,0-0.9,0.2-1.3c0.1-0.4,0.4-0.8,0.6-1.1c0.3-0.3,0.6-0.6,1-0.9c0.4-0.2,0.8-0.4,1.3-0.5
				c0.5-0.1,0.9-0.1,1.3,0c0.4,0.1,0.8,0.2,1.1,0.5c0.3,0.2,0.6,0.5,0.8,0.9c0.2,0.4,0.4,0.8,0.4,1.2c0,0.3,0,0.7-0.1,1
				c-0.1,0.3-0.2,0.7-0.4,1c-0.2,0.3-0.4,0.6-0.6,0.8c-0.3,0.2-0.5,0.5-0.9,0.6l0.7-0.1c0.4-0.1,0.8-0.1,1.1-0.1
				c0.4,0,0.7,0.1,1.1,0.2c0.3,0.1,0.7,0.2,1,0.4c0.1,0.1,0.2,0.1,0.3,0.2c0,0,0,0,0,0c0.1-0.1,0.3-0.1,0.4-0.2
				c0.3-0.1,0.5-0.3,0.8-0.4c0.3-0.1,0.5-0.3,0.8-0.4L137.3,70.7z M100.9,75.2l0.2-5.8c0-1.2,0.3-2.4,0.8-3.6
				c0.5-1.1,1.1-2.2,1.9-3.2c0.8-1,1.7-1.9,2.8-2.6c1.1-0.8,2.2-1.3,3.5-1.7c1.3-0.4,2.5-0.5,3.6-0.4c1.1,0.1,2.2,0.4,3.1,1
				c0.9,0.5,1.7,1.3,2.2,2.3c0.6,1,0.9,2.1,1,3.4l0.3,6.3L100.9,75.2z"/>
		</g>
	</g>
</g>
</svg>
